# xmcd
#
# Track frame offsets: 
#        150
#        12622
#        28267
#        42062
#        58582
#        73115
#        89822
#        104814
#        117644
#        129234
#        147337
#        163310
#        177330
#        194350
#        207527
#        219305
#        233842
#        248770
#        263510
#        277590
#        306680
#        318535
#
# Disc length: 4394 seconds
#
# Revision: 0
# Processed by: cddbd v1.5.1PL0 Copyright (c) Steve Scherf et al.
# Submitted via: ExactAudioCopy v0.95a5
#
DISCID=5a112816
DTITLE=Various Artist - Sony-ATV Country Music [CD3: 1974-1980)
DYEAR=2003
DGENRE=Country
TTITLE0=Waylon Jennings - Ramblin' Man
TTITLE1=B.J. Thomas - Another Somebody Done Somebody Wrong Song
TTITLE2=Elvis Presley - T-R-O-U-B-L-E
TTITLE3=Oak Ridge Boys - I'll Be True To You
TTITLE4=Merle Haggard - If We're Not Back In Love By Monday
TTITLE5=Kenny Rogers - Lucille
TTITLE6=Waylon Jennings - Luckenbach, Texas (Back To The Basics Of Lov
TTITLE6=e)
TTITLE7=Merle Haggard - I'm Always On A Mountain When I Fall
TTITLE8=Waylon Jennings and Willie Nelson - Mammas Don't Let Your Babies
TTITLE8=Grow Up To Be Cowboys
TTITLE9=Tanya Tucker - Texas When I Die
TTITLE10=Kenny Rogers - The Gambler
TTITLE11=John Conlee - Lady Lay Down
TTITLE12=T.G. Sheppard - The Last Cheater's Waltz
TTITLE13=Merle Haggard - My Own Kind Of Hat
TTITLE14=Gene Watson - Should I Come Home Or Should I Go Crazy
TTITLE15=Anne Murray - Could I Have This Dance
TTITLE16=John Conlee - Friday Night Blues
TTITLE17=George Jones - He Stopped Loving Her Today
TTITLE18=Dottie West - Lesson In Leavin'
TTITLE19=Alabama - My Home's In Alabama
TTITLE20=Mickey Gilley - That's All That Matters To Me
TTITLE21=Oak Ridge Boys - Trying To Love Two Women
EXTD=
EXTT0=
EXTT1=
EXTT2=
EXTT3=
EXTT4=
EXTT5=
EXTT6=
EXTT7=
EXTT8=
EXTT9=
EXTT10=
EXTT11=
EXTT12=
EXTT13=
EXTT14=
EXTT15=
EXTT16=
EXTT17=
EXTT18=
EXTT19=
EXTT20=
EXTT21=
PLAYORDER=
